<?xml version="1.0" encoding="UTF-8" standalone="yes"?>
<!-- Created with sK1/UniConvertor (http://sk1project.org/) -->
<svg xmlns="http://www.w3.org/2000/svg" xmlns:xlink="http://www.w3.org/1999/xlink"
  width="595.276pt" height="841.89pt" viewBox="8.86 210.87 816.14 623.02"
  fill-rule="evenodd">
<g>
<path style="stroke:none; fill:#eeee00" d="M 671 210.89C 692.269 210.739 710.78 211.556 727 216.89C 778.975 233.982 825.123 284.042 825 352.89C 824.667 352.89 824.333 352.89 824 352.89C 803.379 321.603 736.584 291.331 687 313.89C 663.033 324.794 652.386 346.733 645 374.89C 642.464 384.559 639.069 403.452 642 416.89C 651.978 462.632 659.807 489.305 692 512.89C 711.623 527.266 734.38 538.82 754 552.89C 759.234 556.644 765.229 559.8 769 564.89C 779.448 578.994 778.135 602.106 769 616.89C 759.97 631.503 745.858 642.93 732 652.89C 703.864 673.112 671.494 690.916 635 702.89C 615.823 709.182 595.57 712.138 575 716.89C 556.633 721.133 521.409 722.098 503 717.89C 492.232 715.428 479.486 717.468 478 705.89C 521.029 679.061 594.326 668.874 622 627.89C 631.353 614.039 633.663 590.546 625 573.89C 617.217 558.925 604.684 547.706 595 534.89C 579.549 514.441 561.619 496.173 548 473.89C 540.363 461.396 535.517 446.001 531 430.89C 528.706 423.215 530.309 410.936 526 404.89C 526 405.557 526 406.223 526 406.89C 510.445 419.422 500.468 466.479 511 490.89C 528.524 531.507 590.398 544.141 603 582.89C 609.659 603.364 594.562 617.812 587 627.89C 565.134 657.03 530.044 674.829 494 689.89C 480.496 695.533 462.044 703.469 443 699.89C 441.879 697.799 441.565 698.058 441 694.89C 445.333 690.224 449.667 685.556 454 680.89C 475.339 664.848 503.748 646.352 511 616.89C 512.713 609.93 510.915 599.441 509 594.89C 501.265 576.508 474.547 560.603 459 548.89C 427.5 525.158 422.547 491.995 426 439.89C 425.667 439.89 425.333 439.89 425 439.89C 425 440.223 425 440.557 425 440.89C 419.005 446.798 416.553 455.454 413 463.89C 411.131 468.328 408.367 474.69 407 479.89C 401.401 501.193 410.258 520.521 418 531.89C 435.298 557.293 470.357 574.423 481 603.89C 490.923 631.362 469.442 659.04 455 669.89C 447.897 675.227 443.079 683.107 431 680.89C 431 677.557 431 674.223 431 670.89C 439.889 659.217 440.762 628.376 433 615.89C 422.369 598.789 400.018 590.768 384 578.89C 367.84 566.906 360.329 547.906 355 524.89C 351.387 509.286 354.461 488.263 358 475.89C 368.76 438.274 384.66 408.451 414 389.89C 421.099 385.399 430.678 381.566 439 378.89C 443 378.223 447 377.557 451 376.89C 452.951 375.377 453.517 370.993 455 368.89C 459.444 362.588 465.608 355.535 471 349.89C 489.341 330.689 513.344 317.871 540 306.89C 557.444 269.802 583.128 239.26 621 222.89C 631.366 218.409 643.667 215.65 655 212.89C 660.322 211.594 666.968 213.406 671 210.89"/>
<path style="stroke:none; fill:#eeeeee" d="M 161 219.89C 181.732 219.553 197.933 222.238 213 225.89C 213.536 227.406 213.675 227.583 214 229.89C 204.884 232.434 194.402 237.002 185 239.89C 162.261 246.873 141.831 248.827 124 259.89C 113.623 266.328 102.687 282.765 90 284.89C 88.4116 281.94 87.9248 279.169 88 273.89C 90.0847 270.922 89.4509 266.64 91 262.89C 95.8974 251.033 105.57 239.339 116 232.89C 124.281 227.77 135.843 224.552 146 221.89C 150.868 220.614 157.244 222.226 161 219.89"/>
<path style="stroke:none; fill:#eeeeee" d="M 239 249.89C 266.155 249.146 307.115 260.952 317 275.89C 314.667 275.89 312.333 275.89 310 275.89C 303.521 271.507 261.113 267.781 248 270.89C 239.171 272.983 233.504 277.472 223 277.89C 221.101 274.654 220.096 273.533 220 267.89C 223.114 263.965 223.977 257.848 228 254.89C 231.146 252.577 235.919 252.269 239 249.89"/>
<path style="stroke:none; fill:#eeeeee" d="M 161 275.89C 210.093 275.802 251.674 299.856 266 332.89C 273.019 349.075 275.69 368.279 280 386.89C 280.667 396.556 281.333 406.224 282 415.89C 288.749 446.91 286.794 480.743 297 507.89C 302.561 522.683 312.707 535.736 325 543.89C 331.697 548.332 346.999 551.175 349 559.89C 313.219 570.357 290.581 555.299 276 531.89C 243.242 479.296 246.579 395.557 209 345.89C 189.111 319.603 136.756 312.427 106 332.89C 96.0119 339.535 75.9492 365.092 66 366.89C 65.2872 364.841 65.0067 362.216 65 358.89C 69.167 352.994 69.3038 343.968 73 337.89C 83.6359 320.399 98.7869 302.78 116 291.89C 124.397 286.578 135.046 282.076 145 278.89C 150.009 277.286 156.887 278.489 161 275.89"/>
<path style="stroke:none; fill:#eeeeee" d="M 297 311.89C 319.614 311.665 327.946 320.702 334 336.89C 334.902 339.302 337.367 345.418 337 348.89C 336.134 357.092 329.994 367.092 333 377.89C 336.532 390.578 349.542 394.183 353 403.89C 352.667 403.89 352.333 403.89 352 403.89C 346.811 408.428 335.833 404.718 331 402.89C 319.01 398.354 311.757 393.51 309 379.89C 306.521 367.641 315.166 353.966 308 340.89C 303.029 331.819 288.253 330.678 284 321.89C 283.248 320.817 283.399 320.944 283 318.89C 286.758 316.632 293.101 314.749 297 311.89"/>
<path style="stroke:none; fill:#eeeeee" d="M 55 395.89C 56.3332 395.89 57.6668 395.89 59 395.89C 59 396.223 59 396.557 59 396.89C 57.1762 397.872 56.4587 398.734 55 399.89C 55.6307 401.644 55.1929 400.861 56 401.89C 62.5607 409.754 83.9638 408.861 94 412.89C 93.3693 414.644 93.8071 413.861 93 414.89C 88.738 418.561 82.1623 417.911 76 419.89C 66.9298 422.803 55.842 426.039 48 430.89C 37.3277 437.492 20.8074 463.31 12 464.89C 11.6667 463.89 11.3333 462.89 11 461.89C 7.1447 456.506 9.3681 444.593 11 438.89C 16.4442 419.865 25.1328 409.072 41 400.89C 45.6662 399.223 50.3338 397.557 55 395.89"/>
<path style="stroke:none; fill:#eeeeee" d="M 50 446.89C 80.6547 446.112 91.8314 459.518 98 482.89C 101.974 497.948 98.483 525.745 88 529.89C 81.148 535.922 72.1523 527.906 68 524.89C 59.1015 518.427 53.6286 510.63 51 497.89C 48.371 485.148 58.7472 471.832 56 455.89C 53.5295 454.396 51.0522 451.756 48 450.89C 43.9318 449.735 38.8674 451.705 36 449.89C 39.5484 449.576 47.2571 448.773 50 446.89"/>
<path style="stroke:none; fill:#eeeeee" d="M 33 450.89C 35.0757 451.262 34.9245 451.132 36 451.89C 33.9243 451.518 34.0755 451.648 33 450.89"/>
<path style="stroke:none; fill:#eeeeee" d="M 95 450.89C 123.771 452.868 145.288 485.888 137 520.89C 132.256 540.926 129.586 563.261 125 583.89C 122.907 593.305 123.108 612.163 125 620.89C 126.924 629.763 124.95 636.716 127 644.89C 133.131 669.339 140.541 688.664 153 705.89C 158.019 712.829 163.24 720.814 170 725.89C 196.663 745.907 226.819 758.684 264 768.89C 275.388 772.016 285.573 770.235 298 772.89C 315.157 776.555 342.744 776.652 360 772.89C 376.601 769.271 391.54 771.799 407 767.89C 434.833 760.851 463.116 757.529 490 748.89C 502.007 745.031 518.588 738.343 533 740.89C 533.536 742.405 533.675 742.583 534 744.89C 532.028 746.895 531.718 749.52 530 751.89C 524.613 759.319 513.501 767.598 506 772.89C 449.884 812.479 336.449 854.28 242 822.89C 171.944 799.606 121.134 761.309 94 694.89C 71.966 640.955 91.9921 584.508 104 536.89C 111.364 507.689 103.411 471.647 95 450.89"/>
</g>
</svg>